<svg width="14" height="16" viewBox="0 0 14 16" fill="none" xmlns="http://www.w3.org/2000/svg">
<g clip-path="url(#clip0)">
<path d="M6.87931 7.97126C9.08051 7.97126 10.8649 6.18683 10.8649 3.98563C10.8649 1.78443 9.08051 0 6.87931 0C4.6781 0 2.89368 1.78443 2.89368 3.98563C2.89368 6.18683 4.6781 7.97126 6.87931 7.97126Z" fill="#222222"/>
<path d="M12.8001 9.40833C12.6085 9.29336 11.5546 8.73767 9.71509 8.39276C9.52347 8.35444 9.33185 8.41192 9.19772 8.54605L6.87916 10.8838L4.5606 8.54605C4.42647 8.41192 4.23485 8.35444 4.04323 8.39276C2.20371 8.73767 1.14982 9.29336 0.958202 9.40833C0.555806 9.59995 0.230058 9.94486 0.0959263 10.3856C-0.0573671 10.8263 -0.0190438 11.3053 0.191735 11.7269L1.91629 15.0802C2.20371 15.655 2.79772 16 3.43006 16H10.3474C10.9989 16 11.5738 15.6359 11.8612 15.0802L13.5857 11.7269C13.7965 11.3053 13.8348 10.8455 13.6816 10.3856C13.5283 9.94486 13.2217 9.59995 12.8001 9.40833Z" fill="#222222"/>
</g>
<defs>
<clipPath id="clip0">
<rect width="13.7581" height="16" fill="white"/>
</clipPath>
</defs>
</svg>
