<svg width="168" height="45" viewBox="0 0 168 45" fill="none" xmlns="http://www.w3.org/2000/svg">
<rect opacity="0.1" x="16.0464" y="1.15295" width="26.8428" height="39.5415" rx="7" transform="rotate(7 16.0464 1.15295)" fill="black"/>
<mask id="mask0" mask-type="alpha" maskUnits="userSpaceOnUse" x="0" y="0" width="34" height="45">
<rect y="4.37512" width="27.4344" height="41.1516" rx="5" transform="rotate(-9.17642 0 4.37512)" fill="#E34565"/>
</mask>
<g mask="url(#mask0)">
<path d="M12.6601 -3.22223C15.8664 -3.74018 19.1412 -3.65478 22.3161 -2.97042L16.8198 22.5278L12.6601 -3.22223Z" fill="#E34565"/>
<path d="M22.2643 -2.98159C25.4406 -2.30369 28.4624 -1.03855 31.1742 0.748763L16.8199 22.5278L22.2643 -2.98159Z" fill="#E8C159"/>
<path d="M31.1563 0.737315C33.8696 2.52245 36.2256 4.79859 38.1032 7.44871L16.8196 22.5279L31.1563 0.737315Z" fill="#7AB05F"/>
<path d="M38.0812 7.41768C39.9627 10.0651 41.3331 13.0405 42.1221 16.1911L16.8196 22.5277L38.0812 7.41768Z" fill="#D1475B"/>
<path d="M42.0934 16.0777C42.8965 19.2246 43.1048 22.4939 42.7077 25.7174L16.8195 22.5277L42.0934 16.0777Z" fill="#EA675A"/>
<path d="M42.7399 25.4477C42.3763 28.6751 41.4132 31.8063 39.9001 34.6801L16.8199 22.5279L42.7399 25.4477Z" fill="#6ACBE6"/>
<path d="M39.9245 34.6327C38.4172 37.5096 36.386 40.0797 33.9351 42.2108L16.8195 22.5277L39.9245 34.6327Z" fill="#FBD344"/>
<path d="M33.9685 42.1821C31.5212 44.3174 28.6968 45.9768 25.6403 47.0751L16.8197 22.5279L33.9685 42.1821Z" fill="#BB4A6D"/>
<path d="M25.6644 47.0663C22.609 48.1676 19.3748 48.6886 16.1281 48.6026L16.8195 22.5278L25.6644 47.0663Z" fill="#F18853"/>
<path d="M16.2022 48.6045C12.9553 48.5276 9.75128 47.845 6.75499 46.5918L16.8199 22.528L16.2022 48.6045Z" fill="#E14085"/>
<path d="M6.79453 46.6083C3.79618 45.36 1.05733 43.5627 -1.28117 41.3089L16.8199 22.528L6.79453 46.6083Z" fill="#F8B64A"/>
<path d="M-1.25253 41.3362C-3.59447 39.0859 -5.49554 36.418 -6.85799 33.4698L16.8198 22.5277L-1.25253 41.3362Z" fill="#D2AB46"/>
<path d="M-6.77107 33.6571C-8.15681 30.7198 -8.9818 27.5494 -9.20359 24.3092L16.8194 22.5279L-6.77107 33.6571Z" fill="#6B9D68"/>
<path d="M-9.20187 24.33C-9.42625 21.0899 -9.04355 17.8364 -8.07345 14.7369L16.8197 22.5279L-9.20187 24.33Z" fill="#5CAFD9"/>
<path d="M-8.12213 14.8949C-7.17173 11.7892 -5.64967 8.88839 -3.63424 6.34154L16.82 22.5278L-8.12213 14.8949Z" fill="#8BC25C"/>
<path d="M-3.68854 6.40987C-1.68164 3.85631 0.784516 1.7 3.58309 0.0518601L16.8196 22.5277L-3.68854 6.40987Z" fill="#448AB1"/>
<path d="M3.58034 0.0534935C6.37871 -1.59499 9.46034 -2.70636 12.6667 -3.22346L16.8196 22.5277L3.58034 0.0534935Z" fill="#4A748C"/>
</g>
<path d="M66.9082 21.1C66.0802 21.532 65.2162 21.844 64.3162 22.036C63.4162 22.228 62.4982 22.324 61.5622 22.324C60.5662 22.324 59.6482 22.168 58.8082 21.856C57.9682 21.544 57.2422 21.1 56.6302 20.524C56.0182 19.936 55.5382 19.228 55.1902 18.4C54.8542 17.572 54.6862 16.648 54.6862 15.628C54.6862 14.608 54.8542 13.684 55.1902 12.856C55.5382 12.028 56.0182 11.326 56.6302 10.75C57.2422 10.162 57.9682 9.712 58.8082 9.4C59.6482 9.088 60.5662 8.932 61.5622 8.932C62.5822 8.932 63.5182 9.058 64.3702 9.31C65.2342 9.55 65.9902 9.97 66.6382 10.57L64.6582 12.73C64.2742 12.334 63.8422 12.034 63.3622 11.83C62.8822 11.626 62.2822 11.524 61.5622 11.524C60.9622 11.524 60.4162 11.626 59.9242 11.83C59.4442 12.034 59.0302 12.322 58.6822 12.694C58.3342 13.054 58.0642 13.486 57.8722 13.99C57.6922 14.494 57.6022 15.04 57.6022 15.628C57.6022 16.228 57.6922 16.78 57.8722 17.284C58.0642 17.776 58.3342 18.208 58.6822 18.58C59.0302 18.94 59.4442 19.222 59.9242 19.426C60.4162 19.63 60.9622 19.732 61.5622 19.732C62.1742 19.732 62.7022 19.666 63.1462 19.534C63.5902 19.39 63.9442 19.246 64.2082 19.102V17.032H61.9222V14.44H66.9082V21.1ZM69.574 8.392H72.274V22H69.574V8.392ZM74.3898 17.626C74.3898 16.93 74.5158 16.3 74.7678 15.736C75.0198 15.172 75.3618 14.692 75.7938 14.296C76.2378 13.888 76.7538 13.576 77.3418 13.36C77.9418 13.144 78.5778 13.036 79.2498 13.036C79.9218 13.036 80.5518 13.144 81.1398 13.36C81.7398 13.576 82.2558 13.888 82.6878 14.296C83.1318 14.692 83.4798 15.172 83.7318 15.736C83.9838 16.3 84.1098 16.93 84.1098 17.626C84.1098 18.322 83.9838 18.952 83.7318 19.516C83.4798 20.08 83.1318 20.566 82.6878 20.974C82.2558 21.37 81.7398 21.676 81.1398 21.892C80.5518 22.108 79.9218 22.216 79.2498 22.216C78.5778 22.216 77.9418 22.108 77.3418 21.892C76.7538 21.676 76.2378 21.37 75.7938 20.974C75.3618 20.566 75.0198 20.08 74.7678 19.516C74.5158 18.952 74.3898 18.322 74.3898 17.626ZM77.0898 17.626C77.0898 18.286 77.2758 18.82 77.6478 19.228C78.0318 19.636 78.5658 19.84 79.2498 19.84C79.9338 19.84 80.4618 19.636 80.8338 19.228C81.2178 18.82 81.4098 18.286 81.4098 17.626C81.4098 16.966 81.2178 16.432 80.8338 16.024C80.4618 15.616 79.9338 15.412 79.2498 15.412C78.5658 15.412 78.0318 15.616 77.6478 16.024C77.2758 16.432 77.0898 16.966 77.0898 17.626ZM86.4521 8.392H89.1521V14.188H89.1881C89.5001 13.768 89.8961 13.474 90.3761 13.306C90.8681 13.126 91.3961 13.036 91.9601 13.036C92.5841 13.036 93.1421 13.168 93.6341 13.432C94.1261 13.684 94.5401 14.026 94.8761 14.458C95.2241 14.89 95.4881 15.388 95.6681 15.952C95.8601 16.504 95.9561 17.086 95.9561 17.698C95.9561 18.358 95.8541 18.964 95.6501 19.516C95.4461 20.068 95.1521 20.548 94.7681 20.956C94.3961 21.352 93.9461 21.664 93.4181 21.892C92.8901 22.108 92.3021 22.216 91.6541 22.216C91.3421 22.216 91.0481 22.174 90.7721 22.09C90.4961 22.006 90.2381 21.898 89.9981 21.766C89.7701 21.634 89.5661 21.49 89.3861 21.334C89.2181 21.166 89.0801 21.004 88.9721 20.848H88.9361V22H86.4521V8.392ZM88.9361 17.626C88.9361 18.286 89.1221 18.82 89.4941 19.228C89.8781 19.636 90.4121 19.84 91.0961 19.84C91.7801 19.84 92.3081 19.636 92.6801 19.228C93.0641 18.82 93.2561 18.286 93.2561 17.626C93.2561 16.966 93.0641 16.432 92.6801 16.024C92.3081 15.616 91.7801 15.412 91.0961 15.412C90.4121 15.412 89.8781 15.616 89.4941 16.024C89.1221 16.432 88.9361 16.966 88.9361 17.626ZM103.528 20.902H103.492C103.192 21.37 102.79 21.706 102.286 21.91C101.794 22.114 101.272 22.216 100.72 22.216C100.312 22.216 99.916 22.156 99.532 22.036C99.16 21.928 98.83 21.76 98.542 21.532C98.254 21.304 98.026 21.022 97.858 20.686C97.69 20.35 97.606 19.96 97.606 19.516C97.606 19.012 97.696 18.586 97.876 18.238C98.068 17.89 98.32 17.602 98.632 17.374C98.956 17.146 99.322 16.972 99.73 16.852C100.138 16.72 100.558 16.624 100.99 16.564C101.434 16.504 101.872 16.468 102.304 16.456C102.748 16.444 103.156 16.438 103.528 16.438C103.528 15.958 103.354 15.58 103.006 15.304C102.67 15.016 102.268 14.872 101.8 14.872C101.356 14.872 100.948 14.968 100.576 15.16C100.216 15.34 99.892 15.592 99.604 15.916L98.164 14.44C98.668 13.972 99.256 13.624 99.928 13.396C100.6 13.156 101.296 13.036 102.016 13.036C102.808 13.036 103.456 13.138 103.96 13.342C104.476 13.534 104.884 13.822 105.184 14.206C105.496 14.59 105.712 15.064 105.832 15.628C105.952 16.18 106.012 16.822 106.012 17.554V22H103.528V20.902ZM102.862 18.166C102.658 18.166 102.4 18.178 102.088 18.202C101.788 18.214 101.494 18.262 101.206 18.346C100.93 18.43 100.69 18.556 100.486 18.724C100.294 18.892 100.198 19.126 100.198 19.426C100.198 19.75 100.336 19.99 100.612 20.146C100.888 20.302 101.176 20.38 101.476 20.38C101.74 20.38 101.992 20.344 102.232 20.272C102.484 20.2 102.706 20.098 102.898 19.966C103.09 19.834 103.24 19.666 103.348 19.462C103.468 19.258 103.528 19.018 103.528 18.742V18.166H102.862ZM108.242 8.392H110.942V22H108.242V8.392ZM131.088 21.1C130.26 21.532 129.396 21.844 128.496 22.036C127.596 22.228 126.678 22.324 125.742 22.324C124.746 22.324 123.828 22.168 122.988 21.856C122.148 21.544 121.422 21.1 120.81 20.524C120.198 19.936 119.718 19.228 119.37 18.4C119.034 17.572 118.866 16.648 118.866 15.628C118.866 14.608 119.034 13.684 119.37 12.856C119.718 12.028 120.198 11.326 120.81 10.75C121.422 10.162 122.148 9.712 122.988 9.4C123.828 9.088 124.746 8.932 125.742 8.932C126.762 8.932 127.698 9.058 128.55 9.31C129.414 9.55 130.17 9.97 130.818 10.57L128.838 12.73C128.454 12.334 128.022 12.034 127.542 11.83C127.062 11.626 126.462 11.524 125.742 11.524C125.142 11.524 124.596 11.626 124.104 11.83C123.624 12.034 123.21 12.322 122.862 12.694C122.514 13.054 122.244 13.486 122.052 13.99C121.872 14.494 121.782 15.04 121.782 15.628C121.782 16.228 121.872 16.78 122.052 17.284C122.244 17.776 122.514 18.208 122.862 18.58C123.21 18.94 123.624 19.222 124.104 19.426C124.596 19.63 125.142 19.732 125.742 19.732C126.354 19.732 126.882 19.666 127.326 19.534C127.77 19.39 128.124 19.246 128.388 19.102V17.032H126.102V14.44H131.088V21.1ZM133.394 17.626C133.394 16.93 133.52 16.3 133.772 15.736C134.024 15.172 134.366 14.692 134.798 14.296C135.242 13.888 135.758 13.576 136.346 13.36C136.946 13.144 137.582 13.036 138.254 13.036C138.926 13.036 139.556 13.144 140.144 13.36C140.744 13.576 141.26 13.888 141.692 14.296C142.136 14.692 142.484 15.172 142.736 15.736C142.988 16.3 143.114 16.93 143.114 17.626C143.114 18.322 142.988 18.952 142.736 19.516C142.484 20.08 142.136 20.566 141.692 20.974C141.26 21.37 140.744 21.676 140.144 21.892C139.556 22.108 138.926 22.216 138.254 22.216C137.582 22.216 136.946 22.108 136.346 21.892C135.758 21.676 135.242 21.37 134.798 20.974C134.366 20.566 134.024 20.08 133.772 19.516C133.52 18.952 133.394 18.322 133.394 17.626ZM136.094 17.626C136.094 18.286 136.28 18.82 136.652 19.228C137.036 19.636 137.57 19.84 138.254 19.84C138.938 19.84 139.466 19.636 139.838 19.228C140.222 18.82 140.414 18.286 140.414 17.626C140.414 16.966 140.222 16.432 139.838 16.024C139.466 15.616 138.938 15.412 138.254 15.412C137.57 15.412 137.036 15.616 136.652 16.024C136.28 16.432 136.094 16.966 136.094 17.626ZM150.694 20.902H150.658C150.358 21.37 149.956 21.706 149.452 21.91C148.96 22.114 148.438 22.216 147.886 22.216C147.478 22.216 147.082 22.156 146.698 22.036C146.326 21.928 145.996 21.76 145.708 21.532C145.42 21.304 145.192 21.022 145.024 20.686C144.856 20.35 144.772 19.96 144.772 19.516C144.772 19.012 144.862 18.586 145.042 18.238C145.234 17.89 145.486 17.602 145.798 17.374C146.122 17.146 146.488 16.972 146.896 16.852C147.304 16.72 147.724 16.624 148.156 16.564C148.6 16.504 149.038 16.468 149.47 16.456C149.914 16.444 150.322 16.438 150.694 16.438C150.694 15.958 150.52 15.58 150.172 15.304C149.836 15.016 149.434 14.872 148.966 14.872C148.522 14.872 148.114 14.968 147.742 15.16C147.382 15.34 147.058 15.592 146.77 15.916L145.33 14.44C145.834 13.972 146.422 13.624 147.094 13.396C147.766 13.156 148.462 13.036 149.182 13.036C149.974 13.036 150.622 13.138 151.126 13.342C151.642 13.534 152.05 13.822 152.35 14.206C152.662 14.59 152.878 15.064 152.998 15.628C153.118 16.18 153.178 16.822 153.178 17.554V22H150.694V20.902ZM150.028 18.166C149.824 18.166 149.566 18.178 149.254 18.202C148.954 18.214 148.66 18.262 148.372 18.346C148.096 18.43 147.856 18.556 147.652 18.724C147.46 18.892 147.364 19.126 147.364 19.426C147.364 19.75 147.502 19.99 147.778 20.146C148.054 20.302 148.342 20.38 148.642 20.38C148.906 20.38 149.158 20.344 149.398 20.272C149.65 20.2 149.872 20.098 150.064 19.966C150.256 19.834 150.406 19.666 150.514 19.462C150.634 19.258 150.694 19.018 150.694 18.742V18.166H150.028ZM155.408 8.392H158.108V22H155.408V8.392ZM165.498 15.826C165.102 15.334 164.58 15.088 163.932 15.088C163.704 15.088 163.482 15.142 163.266 15.25C163.05 15.358 162.942 15.544 162.942 15.808C162.942 16.024 163.05 16.186 163.266 16.294C163.494 16.39 163.776 16.48 164.112 16.564C164.46 16.636 164.826 16.72 165.21 16.816C165.606 16.9 165.972 17.038 166.308 17.23C166.656 17.422 166.938 17.686 167.154 18.022C167.382 18.346 167.496 18.784 167.496 19.336C167.496 19.9 167.37 20.368 167.118 20.74C166.878 21.1 166.566 21.394 166.182 21.622C165.798 21.838 165.366 21.988 164.886 22.072C164.406 22.168 163.932 22.216 163.464 22.216C162.852 22.216 162.234 22.132 161.61 21.964C160.986 21.784 160.458 21.472 160.026 21.028L161.664 19.21C161.916 19.522 162.192 19.762 162.492 19.93C162.804 20.086 163.164 20.164 163.572 20.164C163.884 20.164 164.166 20.122 164.418 20.038C164.67 19.942 164.796 19.774 164.796 19.534C164.796 19.306 164.682 19.138 164.454 19.03C164.238 18.91 163.956 18.814 163.608 18.742C163.272 18.658 162.906 18.574 162.51 18.49C162.126 18.394 161.76 18.256 161.412 18.076C161.076 17.896 160.794 17.644 160.566 17.32C160.35 16.984 160.242 16.54 160.242 15.988C160.242 15.472 160.344 15.028 160.548 14.656C160.764 14.284 161.04 13.978 161.376 13.738C161.724 13.498 162.12 13.324 162.564 13.216C163.008 13.096 163.458 13.036 163.914 13.036C164.49 13.036 165.072 13.12 165.66 13.288C166.248 13.456 166.746 13.756 167.154 14.188L165.498 15.826Z" fill="#222222"/>
<path opacity="0.5" d="M60.7933 33.384C60.5266 33.064 60.2386 32.8347 59.9293 32.696C59.6199 32.5467 59.2786 32.472 58.9053 32.472C58.4893 32.472 58.1213 32.5467 57.8013 32.696C57.4813 32.8347 57.2146 33.032 57.0013 33.288C56.7986 33.544 56.6439 33.8427 56.5373 34.184C56.4306 34.5147 56.3773 34.872 56.3773 35.256C56.3773 35.64 56.4359 36.0027 56.5533 36.344C56.6813 36.6747 56.8519 36.968 57.0653 37.224C57.2893 37.48 57.5559 37.6827 57.8653 37.832C58.1746 37.9707 58.5213 38.04 58.9053 38.04C59.7266 38.04 60.3613 37.7307 60.8093 37.112L61.7373 37.992C61.3746 38.408 60.9479 38.712 60.4573 38.904C59.9666 39.096 59.4493 39.192 58.9053 39.192C58.3293 39.192 57.8013 39.096 57.3213 38.904C56.8413 38.712 56.4306 38.44 56.0893 38.088C55.7586 37.736 55.4973 37.32 55.3053 36.84C55.1239 36.36 55.0333 35.832 55.0333 35.256C55.0333 34.6907 55.1239 34.168 55.3053 33.688C55.4973 33.208 55.7639 32.792 56.1053 32.44C56.4466 32.088 56.8519 31.816 57.3213 31.624C57.8013 31.4213 58.3293 31.32 58.9053 31.32C59.4599 31.32 59.9826 31.416 60.4733 31.608C60.9746 31.8 61.4119 32.0987 61.7853 32.504L60.7933 33.384ZM63.252 35.256C63.252 34.6693 63.3533 34.136 63.556 33.656C63.7587 33.176 64.036 32.7653 64.388 32.424C64.74 32.072 65.1613 31.8 65.652 31.608C66.1427 31.416 66.676 31.32 67.252 31.32C67.828 31.32 68.3613 31.416 68.852 31.608C69.3427 31.8 69.764 32.072 70.116 32.424C70.468 32.7653 70.7453 33.176 70.948 33.656C71.1507 34.136 71.252 34.6693 71.252 35.256C71.252 35.8427 71.1507 36.376 70.948 36.856C70.7453 37.336 70.468 37.752 70.116 38.104C69.764 38.4453 69.3427 38.712 68.852 38.904C68.3613 39.096 67.828 39.192 67.252 39.192C66.676 39.192 66.1427 39.096 65.652 38.904C65.1613 38.712 64.74 38.4453 64.388 38.104C64.036 37.752 63.7587 37.336 63.556 36.856C63.3533 36.376 63.252 35.8427 63.252 35.256ZM64.596 35.256C64.596 35.6507 64.6547 36.0187 64.772 36.36C64.9 36.6907 65.0813 36.984 65.316 37.24C65.5507 37.4853 65.828 37.6827 66.148 37.832C66.4787 37.9707 66.8467 38.04 67.252 38.04C67.6573 38.04 68.02 37.9707 68.34 37.832C68.6707 37.6827 68.9533 37.4853 69.188 37.24C69.4227 36.984 69.5987 36.6907 69.716 36.36C69.844 36.0187 69.908 35.6507 69.908 35.256C69.908 34.8613 69.844 34.4987 69.716 34.168C69.5987 33.8267 69.4227 33.5333 69.188 33.288C68.9533 33.032 68.6707 32.8347 68.34 32.696C68.02 32.5467 67.6573 32.472 67.252 32.472C66.8467 32.472 66.4787 32.5467 66.148 32.696C65.828 32.8347 65.5507 33.032 65.316 33.288C65.0813 33.5333 64.9 33.8267 64.772 34.168C64.6547 34.4987 64.596 34.8613 64.596 35.256ZM73.684 33.288C73.684 32.9467 73.6733 32.6267 73.652 32.328C73.6307 32.0293 73.62 31.7573 73.62 31.512H74.804C74.804 31.7147 74.8093 31.9173 74.82 32.12C74.8307 32.3227 74.836 32.5307 74.836 32.744H74.868C74.9533 32.5627 75.0707 32.3867 75.22 32.216C75.38 32.0453 75.5667 31.896 75.78 31.768C75.9933 31.6293 76.2333 31.5227 76.5 31.448C76.7667 31.3627 77.0547 31.32 77.364 31.32C77.7693 31.32 78.1053 31.3733 78.372 31.48C78.6493 31.576 78.8787 31.6987 79.06 31.848C79.2413 31.9867 79.38 32.1413 79.476 32.312C79.5827 32.472 79.668 32.616 79.732 32.744C80.0093 32.296 80.3293 31.9493 80.692 31.704C81.0547 31.448 81.524 31.32 82.1 31.32C82.6333 31.32 83.0813 31.3947 83.444 31.544C83.8067 31.6827 84.1 31.8907 84.324 32.168C84.548 32.4347 84.708 32.7653 84.804 33.16C84.9 33.544 84.948 33.976 84.948 34.456V39H83.7V34.52C83.7 34.264 83.6733 34.0133 83.62 33.768C83.5667 33.5227 83.4707 33.304 83.332 33.112C83.1933 32.92 83.0067 32.7653 82.772 32.648C82.5373 32.5307 82.2387 32.472 81.876 32.472C81.6093 32.472 81.3587 32.5253 81.124 32.632C80.8893 32.7387 80.6813 32.888 80.5 33.08C80.3293 33.272 80.1907 33.5067 80.084 33.784C79.988 34.0507 79.94 34.3493 79.94 34.68V39H78.692V34.76C78.692 33.928 78.58 33.3413 78.356 33C78.132 32.648 77.764 32.472 77.252 32.472C76.8467 32.472 76.4947 32.5413 76.196 32.68C75.908 32.8187 75.668 33.016 75.476 33.272C75.2947 33.528 75.156 33.832 75.06 34.184C74.9747 34.536 74.932 34.9253 74.932 35.352V39H73.684V33.288ZM87.809 33.288C87.809 32.9467 87.7983 32.6267 87.777 32.328C87.7557 32.0293 87.745 31.7573 87.745 31.512H88.929C88.929 31.7147 88.9343 31.9173 88.945 32.12C88.9557 32.3227 88.961 32.5307 88.961 32.744H88.993C89.0783 32.5627 89.1957 32.3867 89.345 32.216C89.505 32.0453 89.6917 31.896 89.905 31.768C90.1183 31.6293 90.3583 31.5227 90.625 31.448C90.8917 31.3627 91.1797 31.32 91.489 31.32C91.8943 31.32 92.2303 31.3733 92.497 31.48C92.7743 31.576 93.0037 31.6987 93.185 31.848C93.3663 31.9867 93.505 32.1413 93.601 32.312C93.7077 32.472 93.793 32.616 93.857 32.744C94.1343 32.296 94.4543 31.9493 94.817 31.704C95.1797 31.448 95.649 31.32 96.225 31.32C96.7583 31.32 97.2063 31.3947 97.569 31.544C97.9317 31.6827 98.225 31.8907 98.449 32.168C98.673 32.4347 98.833 32.7653 98.929 33.16C99.025 33.544 99.073 33.976 99.073 34.456V39H97.825V34.52C97.825 34.264 97.7983 34.0133 97.745 33.768C97.6917 33.5227 97.5957 33.304 97.457 33.112C97.3183 32.92 97.1317 32.7653 96.897 32.648C96.6623 32.5307 96.3637 32.472 96.001 32.472C95.7343 32.472 95.4837 32.5253 95.249 32.632C95.0143 32.7387 94.8063 32.888 94.625 33.08C94.4543 33.272 94.3157 33.5067 94.209 33.784C94.113 34.0507 94.065 34.3493 94.065 34.68V39H92.817V34.76C92.817 33.928 92.705 33.3413 92.481 33C92.257 32.648 91.889 32.472 91.377 32.472C90.9717 32.472 90.6197 32.5413 90.321 32.68C90.033 32.8187 89.793 33.016 89.601 33.272C89.4197 33.528 89.281 33.832 89.185 34.184C89.0997 34.536 89.057 34.9253 89.057 35.352V39H87.809V33.288ZM108.462 37.224C108.462 37.5653 108.473 37.8853 108.494 38.184C108.515 38.4827 108.526 38.7547 108.526 39H107.342C107.342 38.7973 107.337 38.5947 107.326 38.392C107.315 38.1893 107.31 37.9813 107.31 37.768H107.278C107.193 37.9493 107.07 38.1253 106.91 38.296C106.761 38.4667 106.579 38.6213 106.366 38.76C106.153 38.888 105.913 38.9893 105.646 39.064C105.379 39.1493 105.091 39.192 104.782 39.192C104.291 39.192 103.865 39.1173 103.502 38.968C103.15 38.8187 102.857 38.6107 102.622 38.344C102.387 38.0773 102.211 37.7573 102.094 37.384C101.987 37 101.934 36.584 101.934 36.136V31.512H103.182V36.008C103.182 36.6373 103.321 37.1333 103.598 37.496C103.875 37.8587 104.307 38.04 104.894 38.04C105.299 38.04 105.646 37.9707 105.934 37.832C106.233 37.6933 106.473 37.496 106.654 37.24C106.846 36.984 106.985 36.68 107.07 36.328C107.166 35.976 107.214 35.5867 107.214 35.16V31.512H108.462V37.224ZM111.325 33.288C111.325 32.9467 111.314 32.6267 111.293 32.328C111.271 32.0293 111.261 31.7573 111.261 31.512H112.445C112.445 31.7147 112.45 31.9173 112.461 32.12C112.471 32.3227 112.477 32.5307 112.477 32.744H112.509C112.594 32.5627 112.711 32.3867 112.861 32.216C113.021 32.0453 113.207 31.896 113.421 31.768C113.634 31.6293 113.874 31.5227 114.141 31.448C114.407 31.3627 114.695 31.32 115.005 31.32C115.495 31.32 115.917 31.3947 116.269 31.544C116.631 31.6933 116.93 31.9013 117.165 32.168C117.399 32.4347 117.57 32.76 117.677 33.144C117.794 33.5173 117.853 33.928 117.853 34.376V39H116.605V34.504C116.605 33.8747 116.466 33.3787 116.189 33.016C115.911 32.6533 115.479 32.472 114.893 32.472C114.487 32.472 114.135 32.5413 113.837 32.68C113.549 32.8187 113.309 33.016 113.117 33.272C112.935 33.528 112.797 33.832 112.701 34.184C112.615 34.536 112.573 34.9253 112.573 35.352V39H111.325V33.288ZM120.827 31.512H122.075V39H120.827V31.512ZM120.539 28.584C120.539 28.3387 120.625 28.1253 120.795 27.944C120.977 27.7627 121.195 27.672 121.451 27.672C121.707 27.672 121.921 27.7627 122.091 27.944C122.273 28.1253 122.363 28.3387 122.363 28.584C122.363 28.8507 122.278 29.0693 122.107 29.24C121.937 29.4107 121.718 29.496 121.451 29.496C121.185 29.496 120.966 29.4107 120.795 29.24C120.625 29.0693 120.539 28.8507 120.539 28.584ZM129.155 32.568H126.947V36.312C126.947 36.5573 126.952 36.7867 126.963 37C126.974 37.2027 127.016 37.384 127.091 37.544C127.166 37.6933 127.278 37.816 127.427 37.912C127.576 37.9973 127.79 38.04 128.067 38.04C128.248 38.04 128.435 38.0187 128.627 37.976C128.819 37.9333 129 37.8693 129.171 37.784L129.219 38.92C129.006 39.016 128.766 39.0853 128.499 39.128C128.243 39.1707 127.998 39.192 127.763 39.192C127.315 39.192 126.958 39.1333 126.691 39.016C126.424 38.8987 126.216 38.7333 126.067 38.52C125.918 38.3067 125.816 38.0453 125.763 37.736C125.72 37.416 125.699 37.064 125.699 36.68V32.568H124.067V31.512H125.699V29.384H126.947V31.512H129.155V32.568ZM133.936 40.712C133.808 41.032 133.675 41.32 133.536 41.576C133.408 41.8427 133.248 42.0667 133.056 42.248C132.875 42.44 132.651 42.584 132.384 42.68C132.128 42.7867 131.813 42.84 131.44 42.84C131.259 42.84 131.067 42.8293 130.864 42.808C130.672 42.7867 130.491 42.7333 130.32 42.648L130.48 41.56C130.608 41.6133 130.741 41.6453 130.88 41.656C131.019 41.6773 131.179 41.688 131.36 41.688C131.765 41.688 132.064 41.576 132.256 41.352C132.448 41.128 132.613 40.8293 132.752 40.456L133.264 39.048L130.16 31.512H131.616L133.936 37.384H133.968L136.192 31.512H137.552L133.936 40.712Z" fill="#222222"/>
</svg>
