<svg width="25" height="25" viewBox="0 0 25 25" fill="none" xmlns="http://www.w3.org/2000/svg">
<circle cx="12.5" cy="12.5" r="12.5" fill="white"/>
<path d="M17.498 10.2424C17.5049 10.3398 17.5049 10.4394 17.5049 10.5368C17.5049 13.539 15.0917 17 10.6814 17C9.32172 17 8.06031 16.6277 7 15.9805C7.19195 16.0022 7.37934 16.0087 7.57814 16.0087C8.70016 16.0087 9.73076 15.6494 10.5557 15.039C9.50225 15.0173 8.61789 14.3636 8.31396 13.4632C8.4625 13.4848 8.61104 13.4978 8.76643 13.4978C8.98123 13.4978 9.19604 13.4697 9.39713 13.4199C8.29797 13.21 7.47531 12.2944 7.47531 11.1905V11.1623C7.79523 11.3312 8.16543 11.4372 8.55848 11.4502C7.91178 11.0433 7.48902 10.3463 7.48902 9.55844C7.48902 9.13636 7.60785 8.74892 7.8158 8.41126C8.99723 9.79221 10.7705 10.6926 12.7609 10.7922C12.7243 10.6234 12.7015 10.4481 12.7015 10.2727C12.7015 9.01948 13.7709 8 15.0986 8C15.7887 8 16.4126 8.27489 16.8513 8.71645C17.3929 8.61905 17.9139 8.42857 18.3732 8.16883C18.195 8.69697 17.8156 9.13853 17.3198 9.41991C17.8019 9.37013 18.2704 9.24459 18.7 9.06926C18.3732 9.51948 17.9642 9.91991 17.498 10.2424Z" fill="#5B626C"/>
</svg>
