<svg width="25" height="25" viewBox="0 0 25 25" fill="none" xmlns="http://www.w3.org/2000/svg">
<circle cx="12.5" cy="12.5" r="12.5" fill="white"/>
<path d="M12.5012 9.67974C10.9405 9.67974 9.6816 10.9389 9.6816 12.5C9.6816 14.0611 10.9405 15.3203 12.5012 15.3203C14.062 15.3203 15.3209 14.0611 15.3209 12.5C15.3209 10.9389 14.062 9.67974 12.5012 9.67974ZM12.5012 14.3335C11.4926 14.3335 10.6681 13.5113 10.6681 12.5C10.6681 11.4887 11.4902 10.6665 12.5012 10.6665C13.5123 10.6665 14.3344 11.4887 14.3344 12.5C14.3344 13.5113 13.5098 14.3335 12.5012 14.3335ZM16.0939 9.56438C16.0939 9.9301 15.7994 10.2222 15.4362 10.2222C15.0706 10.2222 14.7785 9.92765 14.7785 9.56438C14.7785 9.2011 15.073 8.90656 15.4362 8.90656C15.7994 8.90656 16.0939 9.2011 16.0939 9.56438ZM17.9613 10.232C17.9196 9.35083 17.7184 8.57029 17.073 7.9272C16.4301 7.28411 15.6497 7.08284 14.7687 7.03866C13.8607 6.98711 11.1393 6.98711 10.2313 7.03866C9.35276 7.08039 8.57239 7.28166 7.92699 7.92475C7.2816 8.56783 7.08282 9.34838 7.03865 10.2296C6.98712 11.1377 6.98712 13.8598 7.03865 14.768C7.08037 15.6492 7.2816 16.4297 7.92699 17.0728C8.57239 17.7159 9.35031 17.9172 10.2313 17.9613C11.1393 18.0129 13.8607 18.0129 14.7687 17.9613C15.6497 17.9196 16.4301 17.7183 17.073 17.0728C17.716 16.4297 17.9172 15.6492 17.9613 14.768C18.0129 13.8598 18.0129 11.1402 17.9613 10.232ZM16.7883 15.7424C16.5969 16.2235 16.2264 16.5942 15.7429 16.7881C15.019 17.0753 13.3012 17.009 12.5012 17.009C11.7012 17.009 9.98098 17.0728 9.25951 16.7881C8.77853 16.5966 8.40798 16.226 8.21411 15.7424C7.92699 15.0184 7.99325 13.3002 7.99325 12.5C7.99325 11.6998 7.92945 9.97919 8.21411 9.25756C8.40552 8.77647 8.77607 8.40584 9.25951 8.21193C9.98344 7.92475 11.7012 7.99102 12.5012 7.99102C13.3012 7.99102 15.0215 7.9272 15.7429 8.21193C16.2239 8.40338 16.5945 8.77402 16.7883 9.25756C17.0755 9.98165 17.0092 11.6998 17.0092 12.5C17.0092 13.3002 17.0755 15.0208 16.7883 15.7424Z" fill="#5B626C"/>
</svg>
