<svg width="20" height="8" viewBox="0 0 20 8" fill="none" xmlns="http://www.w3.org/2000/svg">
<path d="M13.1913 4.06096L8.69563 0.41748L7.91302 8.00009H18.5869L19.3652 0.430524L13.7 4.08705C13.5391 4.18705 13.3348 4.17835 13.1913 4.06096Z" fill="white"/>
<path d="M18.4131 0H9.56958L13.4913 3.17826L18.4131 0Z" fill="white"/>
<path d="M1.75653 4.43499H4.99131C5.23044 4.43499 5.42609 4.23934 5.42609 4.00021C5.42609 3.76108 5.23044 3.56543 4.99131 3.56543H1.75653C1.5174 3.56543 1.32175 3.76108 1.32175 4.00021C1.32175 4.23934 1.51305 4.43499 1.75653 4.43499Z" fill="white"/>
<path d="M5.42609 6.88693C5.42609 6.6478 5.23044 6.45215 4.9913 6.45215H0.434783C0.195652 6.45215 0 6.6478 0 6.88693C0 7.12606 0.195652 7.32171 0.434783 7.32171H4.9913C5.23044 7.32171 5.42609 7.13041 5.42609 6.88693Z" fill="white"/>
<path d="M3.16086 1.54779H4.99129C5.23042 1.54779 5.42607 1.35214 5.42607 1.11301C5.42607 0.873875 5.23042 0.678223 4.99129 0.678223H3.16086C2.92173 0.678223 2.72607 0.873875 2.72607 1.11301C2.72607 1.35214 2.92173 1.54779 3.16086 1.54779Z" fill="white"/>
</svg>
