<svg width="25" height="25" viewBox="0 0 25 25" fill="none" xmlns="http://www.w3.org/2000/svg">
<circle cx="12.5" cy="12.5" r="12.5" fill="white"/>
<path d="M19.2158 9.40859C19.0601 8.85312 18.6028 8.41719 18.022 8.26953C16.9691 8 12.75 8 12.75 8C12.75 8 8.52847 8 7.47556 8.26953C6.89473 8.41719 6.43748 8.85312 6.28176 9.40859C6 10.4117 6 12.5094 6 12.5094C6 12.5094 6 14.6047 6.28176 15.6102C6.43748 16.1633 6.89473 16.5828 7.47556 16.7305C8.52847 17 12.75 17 12.75 17C12.75 17 16.9715 17 18.0244 16.7305C18.6053 16.5828 19.0625 16.1633 19.2182 15.6102C19.5 14.6047 19.5 12.5094 19.5 12.5094C19.5 12.5094 19.4975 10.4117 19.2158 9.40859ZM11.3684 14.4125V10.6062L14.8978 12.5094L11.3684 14.4125Z" fill="#5B626C"/>
</svg>
