<svg width="25" height="25" viewBox="0 0 25 25" fill="none" xmlns="http://www.w3.org/2000/svg">
<circle cx="12.5" cy="12.5" r="12.5" fill="white"/>
<path d="M16.8214 7H8.17857C7.5279 7 7 7.5279 7 8.17857V16.8214C7 17.4721 7.5279 18 8.17857 18H11.5473V14.2605H10.0004V12.5H11.5473V11.1594C11.5473 9.63214 12.4558 8.78996 13.848 8.78996C14.5134 8.78996 15.2107 8.90781 15.2107 8.90781V10.4056H14.4422C13.6859 10.4056 13.4502 10.8746 13.4502 11.3558V12.5H15.1395L14.8694 14.2605H13.4502V18H16.8214C17.4721 18 18 17.4721 18 16.8214V8.17857C18 7.5279 17.4721 7 16.8214 7Z" fill="#5B626C"/>
</svg>
