<svg width="114" height="95" viewBox="0 0 114 95" fill="none" xmlns="http://www.w3.org/2000/svg">
<rect opacity="0.33" x="52.0464" y="1.15283" width="26.8428" height="39.5415" rx="7" transform="rotate(7 52.0464 1.15283)" fill="white"/>
<rect x="36" y="4.375" width="27.4344" height="41.1516" rx="5" transform="rotate(-9.17642 36 4.375)" fill="white"/>
<path d="M12.9082 71.1C12.0802 71.532 11.2162 71.844 10.3162 72.036C9.41622 72.228 8.49822 72.324 7.56222 72.324C6.56622 72.324 5.64822 72.168 4.80822 71.856C3.96822 71.544 3.24222 71.1 2.63022 70.524C2.01822 69.936 1.53822 69.228 1.19022 68.4C0.854219 67.572 0.686219 66.648 0.686219 65.628C0.686219 64.608 0.854219 63.684 1.19022 62.856C1.53822 62.028 2.01822 61.326 2.63022 60.75C3.24222 60.162 3.96822 59.712 4.80822 59.4C5.64822 59.088 6.56622 58.932 7.56222 58.932C8.58222 58.932 9.51822 59.058 10.3702 59.31C11.2342 59.55 11.9902 59.97 12.6382 60.57L10.6582 62.73C10.2742 62.334 9.84222 62.034 9.36222 61.83C8.88222 61.626 8.28222 61.524 7.56222 61.524C6.96222 61.524 6.41622 61.626 5.92422 61.83C5.44422 62.034 5.03022 62.322 4.68222 62.694C4.33422 63.054 4.06422 63.486 3.87222 63.99C3.69222 64.494 3.60222 65.04 3.60222 65.628C3.60222 66.228 3.69222 66.78 3.87222 67.284C4.06422 67.776 4.33422 68.208 4.68222 68.58C5.03022 68.94 5.44422 69.222 5.92422 69.426C6.41622 69.63 6.96222 69.732 7.56222 69.732C8.17422 69.732 8.70222 69.666 9.14622 69.534C9.59022 69.39 9.94422 69.246 10.2082 69.102V67.032H7.92222V64.44H12.9082V71.1ZM15.574 58.392H18.274V72H15.574V58.392ZM20.3898 67.626C20.3898 66.93 20.5158 66.3 20.7678 65.736C21.0198 65.172 21.3618 64.692 21.7938 64.296C22.2378 63.888 22.7538 63.576 23.3418 63.36C23.9418 63.144 24.5778 63.036 25.2498 63.036C25.9218 63.036 26.5518 63.144 27.1398 63.36C27.7398 63.576 28.2558 63.888 28.6878 64.296C29.1318 64.692 29.4798 65.172 29.7318 65.736C29.9838 66.3 30.1098 66.93 30.1098 67.626C30.1098 68.322 29.9838 68.952 29.7318 69.516C29.4798 70.08 29.1318 70.566 28.6878 70.974C28.2558 71.37 27.7398 71.676 27.1398 71.892C26.5518 72.108 25.9218 72.216 25.2498 72.216C24.5778 72.216 23.9418 72.108 23.3418 71.892C22.7538 71.676 22.2378 71.37 21.7938 70.974C21.3618 70.566 21.0198 70.08 20.7678 69.516C20.5158 68.952 20.3898 68.322 20.3898 67.626ZM23.0898 67.626C23.0898 68.286 23.2758 68.82 23.6478 69.228C24.0318 69.636 24.5658 69.84 25.2498 69.84C25.9338 69.84 26.4618 69.636 26.8338 69.228C27.2178 68.82 27.4098 68.286 27.4098 67.626C27.4098 66.966 27.2178 66.432 26.8338 66.024C26.4618 65.616 25.9338 65.412 25.2498 65.412C24.5658 65.412 24.0318 65.616 23.6478 66.024C23.2758 66.432 23.0898 66.966 23.0898 67.626ZM32.4521 58.392H35.1521V64.188H35.1881C35.5001 63.768 35.8961 63.474 36.3761 63.306C36.8681 63.126 37.3961 63.036 37.9601 63.036C38.5841 63.036 39.1421 63.168 39.6341 63.432C40.1261 63.684 40.5401 64.026 40.8761 64.458C41.2241 64.89 41.4881 65.388 41.6681 65.952C41.8601 66.504 41.9561 67.086 41.9561 67.698C41.9561 68.358 41.8541 68.964 41.6501 69.516C41.4461 70.068 41.1521 70.548 40.7681 70.956C40.3961 71.352 39.9461 71.664 39.4181 71.892C38.8901 72.108 38.3021 72.216 37.6541 72.216C37.3421 72.216 37.0481 72.174 36.7721 72.09C36.4961 72.006 36.2381 71.898 35.9981 71.766C35.7701 71.634 35.5661 71.49 35.3861 71.334C35.2181 71.166 35.0801 71.004 34.9721 70.848H34.9361V72H32.4521V58.392ZM34.9361 67.626C34.9361 68.286 35.1221 68.82 35.4941 69.228C35.8781 69.636 36.4121 69.84 37.0961 69.84C37.7801 69.84 38.3081 69.636 38.6801 69.228C39.0641 68.82 39.2561 68.286 39.2561 67.626C39.2561 66.966 39.0641 66.432 38.6801 66.024C38.3081 65.616 37.7801 65.412 37.0961 65.412C36.4121 65.412 35.8781 65.616 35.4941 66.024C35.1221 66.432 34.9361 66.966 34.9361 67.626ZM49.528 70.902H49.492C49.192 71.37 48.79 71.706 48.286 71.91C47.794 72.114 47.272 72.216 46.72 72.216C46.312 72.216 45.916 72.156 45.532 72.036C45.16 71.928 44.83 71.76 44.542 71.532C44.254 71.304 44.026 71.022 43.858 70.686C43.69 70.35 43.606 69.96 43.606 69.516C43.606 69.012 43.696 68.586 43.876 68.238C44.068 67.89 44.32 67.602 44.632 67.374C44.956 67.146 45.322 66.972 45.73 66.852C46.138 66.72 46.558 66.624 46.99 66.564C47.434 66.504 47.872 66.468 48.304 66.456C48.748 66.444 49.156 66.438 49.528 66.438C49.528 65.958 49.354 65.58 49.006 65.304C48.67 65.016 48.268 64.872 47.8 64.872C47.356 64.872 46.948 64.968 46.576 65.16C46.216 65.34 45.892 65.592 45.604 65.916L44.164 64.44C44.668 63.972 45.256 63.624 45.928 63.396C46.6 63.156 47.296 63.036 48.016 63.036C48.808 63.036 49.456 63.138 49.96 63.342C50.476 63.534 50.884 63.822 51.184 64.206C51.496 64.59 51.712 65.064 51.832 65.628C51.952 66.18 52.012 66.822 52.012 67.554V72H49.528V70.902ZM48.862 68.166C48.658 68.166 48.4 68.178 48.088 68.202C47.788 68.214 47.494 68.262 47.206 68.346C46.93 68.43 46.69 68.556 46.486 68.724C46.294 68.892 46.198 69.126 46.198 69.426C46.198 69.75 46.336 69.99 46.612 70.146C46.888 70.302 47.176 70.38 47.476 70.38C47.74 70.38 47.992 70.344 48.232 70.272C48.484 70.2 48.706 70.098 48.898 69.966C49.09 69.834 49.24 69.666 49.348 69.462C49.468 69.258 49.528 69.018 49.528 68.742V68.166H48.862ZM54.242 58.392H56.942V72H54.242V58.392ZM77.0879 71.1C76.2599 71.532 75.3959 71.844 74.4959 72.036C73.5959 72.228 72.6779 72.324 71.7419 72.324C70.7459 72.324 69.8279 72.168 68.9879 71.856C68.1479 71.544 67.4219 71.1 66.8099 70.524C66.1979 69.936 65.7179 69.228 65.3699 68.4C65.0339 67.572 64.8659 66.648 64.8659 65.628C64.8659 64.608 65.0339 63.684 65.3699 62.856C65.7179 62.028 66.1979 61.326 66.8099 60.75C67.4219 60.162 68.1479 59.712 68.9879 59.4C69.8279 59.088 70.7459 58.932 71.7419 58.932C72.7619 58.932 73.6979 59.058 74.5499 59.31C75.4139 59.55 76.1699 59.97 76.8179 60.57L74.8379 62.73C74.4539 62.334 74.0219 62.034 73.5419 61.83C73.0619 61.626 72.4619 61.524 71.7419 61.524C71.1419 61.524 70.5959 61.626 70.1039 61.83C69.6239 62.034 69.2099 62.322 68.8619 62.694C68.5139 63.054 68.2439 63.486 68.0519 63.99C67.8719 64.494 67.7819 65.04 67.7819 65.628C67.7819 66.228 67.8719 66.78 68.0519 67.284C68.2439 67.776 68.5139 68.208 68.8619 68.58C69.2099 68.94 69.6239 69.222 70.1039 69.426C70.5959 69.63 71.1419 69.732 71.7419 69.732C72.3539 69.732 72.8819 69.666 73.3259 69.534C73.7699 69.39 74.1239 69.246 74.3879 69.102V67.032H72.1019V64.44H77.0879V71.1ZM79.3937 67.626C79.3937 66.93 79.5197 66.3 79.7717 65.736C80.0237 65.172 80.3657 64.692 80.7977 64.296C81.2417 63.888 81.7577 63.576 82.3457 63.36C82.9457 63.144 83.5817 63.036 84.2537 63.036C84.9257 63.036 85.5557 63.144 86.1437 63.36C86.7437 63.576 87.2597 63.888 87.6917 64.296C88.1357 64.692 88.4837 65.172 88.7357 65.736C88.9877 66.3 89.1137 66.93 89.1137 67.626C89.1137 68.322 88.9877 68.952 88.7357 69.516C88.4837 70.08 88.1357 70.566 87.6917 70.974C87.2597 71.37 86.7437 71.676 86.1437 71.892C85.5557 72.108 84.9257 72.216 84.2537 72.216C83.5817 72.216 82.9457 72.108 82.3457 71.892C81.7577 71.676 81.2417 71.37 80.7977 70.974C80.3657 70.566 80.0237 70.08 79.7717 69.516C79.5197 68.952 79.3937 68.322 79.3937 67.626ZM82.0937 67.626C82.0937 68.286 82.2797 68.82 82.6517 69.228C83.0357 69.636 83.5697 69.84 84.2537 69.84C84.9377 69.84 85.4657 69.636 85.8377 69.228C86.2217 68.82 86.4137 68.286 86.4137 67.626C86.4137 66.966 86.2217 66.432 85.8377 66.024C85.4657 65.616 84.9377 65.412 84.2537 65.412C83.5697 65.412 83.0357 65.616 82.6517 66.024C82.2797 66.432 82.0937 66.966 82.0937 67.626ZM96.694 70.902H96.658C96.358 71.37 95.956 71.706 95.452 71.91C94.96 72.114 94.438 72.216 93.886 72.216C93.478 72.216 93.082 72.156 92.698 72.036C92.326 71.928 91.996 71.76 91.708 71.532C91.42 71.304 91.192 71.022 91.024 70.686C90.856 70.35 90.772 69.96 90.772 69.516C90.772 69.012 90.862 68.586 91.042 68.238C91.234 67.89 91.486 67.602 91.798 67.374C92.122 67.146 92.488 66.972 92.896 66.852C93.304 66.72 93.724 66.624 94.156 66.564C94.6 66.504 95.038 66.468 95.47 66.456C95.914 66.444 96.322 66.438 96.694 66.438C96.694 65.958 96.52 65.58 96.172 65.304C95.836 65.016 95.434 64.872 94.966 64.872C94.522 64.872 94.114 64.968 93.742 65.16C93.382 65.34 93.058 65.592 92.77 65.916L91.33 64.44C91.834 63.972 92.422 63.624 93.094 63.396C93.766 63.156 94.462 63.036 95.182 63.036C95.974 63.036 96.622 63.138 97.126 63.342C97.642 63.534 98.05 63.822 98.35 64.206C98.662 64.59 98.878 65.064 98.998 65.628C99.118 66.18 99.178 66.822 99.178 67.554V72H96.694V70.902ZM96.028 68.166C95.824 68.166 95.566 68.178 95.254 68.202C94.954 68.214 94.66 68.262 94.372 68.346C94.096 68.43 93.856 68.556 93.652 68.724C93.46 68.892 93.364 69.126 93.364 69.426C93.364 69.75 93.502 69.99 93.778 70.146C94.054 70.302 94.342 70.38 94.642 70.38C94.906 70.38 95.158 70.344 95.398 70.272C95.65 70.2 95.872 70.098 96.064 69.966C96.256 69.834 96.406 69.666 96.514 69.462C96.634 69.258 96.694 69.018 96.694 68.742V68.166H96.028ZM101.408 58.392H104.108V72H101.408V58.392ZM111.498 65.826C111.102 65.334 110.58 65.088 109.932 65.088C109.704 65.088 109.482 65.142 109.266 65.25C109.05 65.358 108.942 65.544 108.942 65.808C108.942 66.024 109.05 66.186 109.266 66.294C109.494 66.39 109.776 66.48 110.112 66.564C110.46 66.636 110.826 66.72 111.21 66.816C111.606 66.9 111.972 67.038 112.308 67.23C112.656 67.422 112.938 67.686 113.154 68.022C113.382 68.346 113.496 68.784 113.496 69.336C113.496 69.9 113.37 70.368 113.118 70.74C112.878 71.1 112.566 71.394 112.182 71.622C111.798 71.838 111.366 71.988 110.886 72.072C110.406 72.168 109.932 72.216 109.464 72.216C108.852 72.216 108.234 72.132 107.61 71.964C106.986 71.784 106.458 71.472 106.026 71.028L107.664 69.21C107.916 69.522 108.192 69.762 108.492 69.93C108.804 70.086 109.164 70.164 109.572 70.164C109.884 70.164 110.166 70.122 110.418 70.038C110.67 69.942 110.796 69.774 110.796 69.534C110.796 69.306 110.682 69.138 110.454 69.03C110.238 68.91 109.956 68.814 109.608 68.742C109.272 68.658 108.906 68.574 108.51 68.49C108.126 68.394 107.76 68.256 107.412 68.076C107.076 67.896 106.794 67.644 106.566 67.32C106.35 66.984 106.242 66.54 106.242 65.988C106.242 65.472 106.344 65.028 106.548 64.656C106.764 64.284 107.04 63.978 107.376 63.738C107.724 63.498 108.12 63.324 108.564 63.216C109.008 63.096 109.458 63.036 109.914 63.036C110.49 63.036 111.072 63.12 111.66 63.288C112.248 63.456 112.746 63.756 113.154 64.188L111.498 65.826Z" fill="white"/>
<path opacity="0.5" d="M21.7933 83.384C21.5266 83.064 21.2386 82.8347 20.9293 82.696C20.6199 82.5467 20.2786 82.472 19.9053 82.472C19.4893 82.472 19.1213 82.5467 18.8013 82.696C18.4813 82.8347 18.2146 83.032 18.0013 83.288C17.7986 83.544 17.6439 83.8427 17.5373 84.184C17.4306 84.5147 17.3773 84.872 17.3773 85.256C17.3773 85.64 17.4359 86.0027 17.5533 86.344C17.6813 86.6747 17.8519 86.968 18.0653 87.224C18.2893 87.48 18.5559 87.6827 18.8653 87.832C19.1746 87.9707 19.5213 88.04 19.9053 88.04C20.7266 88.04 21.3613 87.7307 21.8093 87.112L22.7373 87.992C22.3746 88.408 21.9479 88.712 21.4573 88.904C20.9666 89.096 20.4493 89.192 19.9053 89.192C19.3293 89.192 18.8013 89.096 18.3213 88.904C17.8413 88.712 17.4306 88.44 17.0893 88.088C16.7586 87.736 16.4973 87.32 16.3053 86.84C16.1239 86.36 16.0333 85.832 16.0333 85.256C16.0333 84.6907 16.1239 84.168 16.3053 83.688C16.4973 83.208 16.7639 82.792 17.1053 82.44C17.4466 82.088 17.8519 81.816 18.3213 81.624C18.8013 81.4213 19.3293 81.32 19.9053 81.32C20.4599 81.32 20.9826 81.416 21.4733 81.608C21.9746 81.8 22.4119 82.0987 22.7853 82.504L21.7933 83.384ZM24.252 85.256C24.252 84.6693 24.3533 84.136 24.556 83.656C24.7587 83.176 25.036 82.7653 25.388 82.424C25.74 82.072 26.1613 81.8 26.652 81.608C27.1427 81.416 27.676 81.32 28.252 81.32C28.828 81.32 29.3613 81.416 29.852 81.608C30.3427 81.8 30.764 82.072 31.116 82.424C31.468 82.7653 31.7453 83.176 31.948 83.656C32.1507 84.136 32.252 84.6693 32.252 85.256C32.252 85.8427 32.1507 86.376 31.948 86.856C31.7453 87.336 31.468 87.752 31.116 88.104C30.764 88.4453 30.3427 88.712 29.852 88.904C29.3613 89.096 28.828 89.192 28.252 89.192C27.676 89.192 27.1427 89.096 26.652 88.904C26.1613 88.712 25.74 88.4453 25.388 88.104C25.036 87.752 24.7587 87.336 24.556 86.856C24.3533 86.376 24.252 85.8427 24.252 85.256ZM25.596 85.256C25.596 85.6507 25.6547 86.0187 25.772 86.36C25.9 86.6907 26.0813 86.984 26.316 87.24C26.5507 87.4853 26.828 87.6827 27.148 87.832C27.4787 87.9707 27.8467 88.04 28.252 88.04C28.6573 88.04 29.02 87.9707 29.34 87.832C29.6707 87.6827 29.9533 87.4853 30.188 87.24C30.4227 86.984 30.5987 86.6907 30.716 86.36C30.844 86.0187 30.908 85.6507 30.908 85.256C30.908 84.8613 30.844 84.4987 30.716 84.168C30.5987 83.8267 30.4227 83.5333 30.188 83.288C29.9533 83.032 29.6707 82.8347 29.34 82.696C29.02 82.5467 28.6573 82.472 28.252 82.472C27.8467 82.472 27.4787 82.5467 27.148 82.696C26.828 82.8347 26.5507 83.032 26.316 83.288C26.0813 83.5333 25.9 83.8267 25.772 84.168C25.6547 84.4987 25.596 84.8613 25.596 85.256ZM34.684 83.288C34.684 82.9467 34.6733 82.6267 34.652 82.328C34.6307 82.0293 34.62 81.7573 34.62 81.512H35.804C35.804 81.7147 35.8093 81.9173 35.82 82.12C35.8307 82.3227 35.836 82.5307 35.836 82.744H35.868C35.9533 82.5627 36.0707 82.3867 36.22 82.216C36.38 82.0453 36.5667 81.896 36.78 81.768C36.9933 81.6293 37.2333 81.5227 37.5 81.448C37.7667 81.3627 38.0547 81.32 38.364 81.32C38.7693 81.32 39.1053 81.3733 39.372 81.48C39.6493 81.576 39.8787 81.6987 40.06 81.848C40.2413 81.9867 40.38 82.1413 40.476 82.312C40.5827 82.472 40.668 82.616 40.732 82.744C41.0093 82.296 41.3293 81.9493 41.692 81.704C42.0547 81.448 42.524 81.32 43.1 81.32C43.6333 81.32 44.0813 81.3947 44.444 81.544C44.8067 81.6827 45.1 81.8907 45.324 82.168C45.548 82.4347 45.708 82.7653 45.804 83.16C45.9 83.544 45.948 83.976 45.948 84.456V89H44.7V84.52C44.7 84.264 44.6733 84.0133 44.62 83.768C44.5667 83.5227 44.4707 83.304 44.332 83.112C44.1933 82.92 44.0067 82.7653 43.772 82.648C43.5373 82.5307 43.2387 82.472 42.876 82.472C42.6093 82.472 42.3587 82.5253 42.124 82.632C41.8893 82.7387 41.6813 82.888 41.5 83.08C41.3293 83.272 41.1907 83.5067 41.084 83.784C40.988 84.0507 40.94 84.3493 40.94 84.68V89H39.692V84.76C39.692 83.928 39.58 83.3413 39.356 83C39.132 82.648 38.764 82.472 38.252 82.472C37.8467 82.472 37.4947 82.5413 37.196 82.68C36.908 82.8187 36.668 83.016 36.476 83.272C36.2947 83.528 36.156 83.832 36.06 84.184C35.9747 84.536 35.932 84.9253 35.932 85.352V89H34.684V83.288ZM48.809 83.288C48.809 82.9467 48.7983 82.6267 48.777 82.328C48.7557 82.0293 48.745 81.7573 48.745 81.512H49.929C49.929 81.7147 49.9343 81.9173 49.945 82.12C49.9557 82.3227 49.961 82.5307 49.961 82.744H49.993C50.0783 82.5627 50.1957 82.3867 50.345 82.216C50.505 82.0453 50.6917 81.896 50.905 81.768C51.1183 81.6293 51.3583 81.5227 51.625 81.448C51.8917 81.3627 52.1797 81.32 52.489 81.32C52.8943 81.32 53.2303 81.3733 53.497 81.48C53.7743 81.576 54.0037 81.6987 54.185 81.848C54.3663 81.9867 54.505 82.1413 54.601 82.312C54.7077 82.472 54.793 82.616 54.857 82.744C55.1343 82.296 55.4543 81.9493 55.817 81.704C56.1797 81.448 56.649 81.32 57.225 81.32C57.7583 81.32 58.2063 81.3947 58.569 81.544C58.9317 81.6827 59.225 81.8907 59.449 82.168C59.673 82.4347 59.833 82.7653 59.929 83.16C60.025 83.544 60.073 83.976 60.073 84.456V89H58.825V84.52C58.825 84.264 58.7983 84.0133 58.745 83.768C58.6917 83.5227 58.5957 83.304 58.457 83.112C58.3183 82.92 58.1317 82.7653 57.897 82.648C57.6623 82.5307 57.3637 82.472 57.001 82.472C56.7343 82.472 56.4837 82.5253 56.249 82.632C56.0143 82.7387 55.8063 82.888 55.625 83.08C55.4543 83.272 55.3157 83.5067 55.209 83.784C55.113 84.0507 55.065 84.3493 55.065 84.68V89H53.817V84.76C53.817 83.928 53.705 83.3413 53.481 83C53.257 82.648 52.889 82.472 52.377 82.472C51.9717 82.472 51.6197 82.5413 51.321 82.68C51.033 82.8187 50.793 83.016 50.601 83.272C50.4197 83.528 50.281 83.832 50.185 84.184C50.0997 84.536 50.057 84.9253 50.057 85.352V89H48.809V83.288ZM69.462 87.224C69.462 87.5653 69.4727 87.8853 69.494 88.184C69.5153 88.4827 69.526 88.7547 69.526 89H68.342C68.342 88.7973 68.3367 88.5947 68.326 88.392C68.3153 88.1893 68.31 87.9813 68.31 87.768H68.278C68.1927 87.9493 68.07 88.1253 67.91 88.296C67.7607 88.4667 67.5793 88.6213 67.366 88.76C67.1527 88.888 66.9127 88.9893 66.646 89.064C66.3793 89.1493 66.0913 89.192 65.782 89.192C65.2913 89.192 64.8647 89.1173 64.502 88.968C64.15 88.8187 63.8567 88.6107 63.622 88.344C63.3873 88.0773 63.2113 87.7573 63.094 87.384C62.9873 87 62.934 86.584 62.934 86.136V81.512H64.182V86.008C64.182 86.6373 64.3207 87.1333 64.598 87.496C64.8753 87.8587 65.3073 88.04 65.894 88.04C66.2993 88.04 66.646 87.9707 66.934 87.832C67.2327 87.6933 67.4727 87.496 67.654 87.24C67.846 86.984 67.9847 86.68 68.07 86.328C68.166 85.976 68.214 85.5867 68.214 85.16V81.512H69.462V87.224ZM72.3246 83.288C72.3246 82.9467 72.314 82.6267 72.2926 82.328C72.2713 82.0293 72.2606 81.7573 72.2606 81.512H73.4446C73.4446 81.7147 73.45 81.9173 73.4606 82.12C73.4713 82.3227 73.4766 82.5307 73.4766 82.744H73.5086C73.594 82.5627 73.7113 82.3867 73.8606 82.216C74.0206 82.0453 74.2073 81.896 74.4206 81.768C74.634 81.6293 74.874 81.5227 75.1406 81.448C75.4073 81.3627 75.6953 81.32 76.0046 81.32C76.4953 81.32 76.9166 81.3947 77.2686 81.544C77.6313 81.6933 77.93 81.9013 78.1646 82.168C78.3993 82.4347 78.57 82.76 78.6766 83.144C78.794 83.5173 78.8526 83.928 78.8526 84.376V89H77.6046V84.504C77.6046 83.8747 77.466 83.3787 77.1886 83.016C76.9113 82.6533 76.4793 82.472 75.8926 82.472C75.4873 82.472 75.1353 82.5413 74.8366 82.68C74.5486 82.8187 74.3086 83.016 74.1166 83.272C73.9353 83.528 73.7966 83.832 73.7006 84.184C73.6153 84.536 73.5726 84.9253 73.5726 85.352V89H72.3246V83.288ZM81.8273 81.512H83.0753V89H81.8273V81.512ZM81.5393 78.584C81.5393 78.3387 81.6246 78.1253 81.7953 77.944C81.9766 77.7627 82.1953 77.672 82.4513 77.672C82.7073 77.672 82.9206 77.7627 83.0913 77.944C83.2726 78.1253 83.3633 78.3387 83.3633 78.584C83.3633 78.8507 83.2779 79.0693 83.1073 79.24C82.9366 79.4107 82.7179 79.496 82.4513 79.496C82.1846 79.496 81.9659 79.4107 81.7953 79.24C81.6246 79.0693 81.5393 78.8507 81.5393 78.584ZM90.155 82.568H87.947V86.312C87.947 86.5573 87.9523 86.7867 87.963 87C87.9737 87.2027 88.0163 87.384 88.091 87.544C88.1657 87.6933 88.2777 87.816 88.427 87.912C88.5763 87.9973 88.7897 88.04 89.067 88.04C89.2483 88.04 89.435 88.0187 89.627 87.976C89.819 87.9333 90.0003 87.8693 90.171 87.784L90.219 88.92C90.0057 89.016 89.7657 89.0853 89.499 89.128C89.243 89.1707 88.9977 89.192 88.763 89.192C88.315 89.192 87.9577 89.1333 87.691 89.016C87.4243 88.8987 87.2163 88.7333 87.067 88.52C86.9177 88.3067 86.8163 88.0453 86.763 87.736C86.7203 87.416 86.699 87.064 86.699 86.68V82.568H85.067V81.512H86.699V79.384H87.947V81.512H90.155V82.568ZM94.936 90.712C94.808 91.032 94.6747 91.32 94.536 91.576C94.408 91.8427 94.248 92.0667 94.056 92.248C93.8747 92.44 93.6507 92.584 93.384 92.68C93.128 92.7867 92.8133 92.84 92.44 92.84C92.2587 92.84 92.0667 92.8293 91.864 92.808C91.672 92.7867 91.4907 92.7333 91.32 92.648L91.48 91.56C91.608 91.6133 91.7413 91.6453 91.88 91.656C92.0187 91.6773 92.1787 91.688 92.36 91.688C92.7653 91.688 93.064 91.576 93.256 91.352C93.448 91.128 93.6133 90.8293 93.752 90.456L94.264 89.048L91.16 81.512H92.616L94.936 87.384H94.968L97.192 81.512H98.552L94.936 90.712Z" fill="white"/>
</svg>
