<svg width="18" height="18" viewBox="0 0 18 18" fill="none" xmlns="http://www.w3.org/2000/svg">
<path d="M17 9C17 13.4183 13.4183 17 9 17C4.58172 17 1 13.4183 1 9C1 4.58172 4.58172 1 9 1C13.4183 1 17 4.58172 17 9ZM4.55039 9C4.55039 11.4575 6.54255 13.4496 9 13.4496C11.4575 13.4496 13.4496 11.4575 13.4496 9C13.4496 6.54255 11.4575 4.55039 9 4.55039C6.54255 4.55039 4.55039 6.54255 4.55039 9Z" fill="#222222"/>
<line x1="9" y1="2.18557e-08" x2="9" y2="18" stroke="white"/>
<line y1="9" x2="18" y2="9" stroke="white"/>
<line x1="15.3641" y1="2.63602" x2="2.63613" y2="15.3639" stroke="white"/>
<line x1="2.63602" y1="2.63595" x2="15.3639" y2="15.3639" stroke="white"/>
</svg>
